<svg xmlns="http://www.w3.org/2000/svg" viewBox="0 0 140.06 75.27"><defs><style>.cls-1{font-size:20px;font-family:AktivGroteskCorp-Bold, Aktiv Grotesk Corp;font-weight:700;letter-spacing:0.05em;}.cls-2{letter-spacing:-0.04em;}.cls-3{font-size:21px;font-family:AktivGroteskCorp-Light, Aktiv Grotesk Corp;font-weight:300;letter-spacing:0em;}.cls-4{letter-spacing:0.01em;}.cls-5{letter-spacing:-0.01em;}</style></defs><g id="Слой_2" data-name="Слой 2"><g id="Слой_1-2" data-name="Слой 1"><path d="M20.91,55.69c3.1-.17-1.66-.73,1.68-.22,2.28.35,4.81.5,5.46-1.16.26-.65.7-2.24.28-2.8-.67-.9-1.82-.59-3.19-1-2.46-.79-3.69-3.37-4.08-4.22a8.07,8.07,0,0,1,1.91-10A9.67,9.67,0,0,1,26.8,34.4a31.33,31.33,0,0,1,8-1.27,4.17,4.17,0,0,0,2.81-.77,4.1,4.1,0,0,0,1.15-2.3c.4-1.74-.21-2.36.26-3.45a4.1,4.1,0,0,1,2.29-1.91c2.06-.95,4.06-.68,6.13-.38,2.64.38,3,.92,5.23,1a17.28,17.28,0,0,0,4-.38c3.42-.75,26.14-7.33,57.19-16.6,3,.27,4.34,1.29,5,2.17.48.66.65,1.33,1.41,1.79a4,4,0,0,0,3.32,0,4.2,4.2,0,0,0,.63-3.19c-.27-1.23-1.43-1.61-3.06-3.07s-1.6-2.89-2.81-3.19a3,3,0,0,0-2,.38c-1.54.77-4.3,1.69-9.7,2.43l-1.66,2-50.43,13A5,5,0,0,1,53.34,17c0-2.11.85-3,.52-4.85-.3-1.65-2-2.68-3.19-3.45a7,7,0,0,0-3.44-1.27C45,7.38,43.4,8.82,42.12,9.89c-2,1.72-5,4-9.06,6.89a35.39,35.39,0,0,1-6.9.13c-3.69-.28-4.77-.94-9.83-1.53-4.52-.52-6.37-.31-7.79,0a9.45,9.45,0,0,0-5,2.3C2.28,18.93.73,20.05.08,21.89c-.24.68.13,3,0,5.87a22.45,22.45,0,0,0,.53,5.49,22.86,22.86,0,0,0,1.28,4.6,22.36,22.36,0,0,0,2.55,4.59c.75,1.11.89,1.17,3.57,4.47s2.64,3.35,3.32,4a15.81,15.81,0,0,0,5.11,2.94C17.55,54.39,20.12,55.74,20.91,55.69Z"/><circle cx="107.77" cy="3.89" r="1.4"/><circle cx="111.85" cy="2.81" r="1.4"/><circle cx="115.43" cy="1.4" r="1.4"/><text class="cls-1" transform="translate(31.28 49.8)">GUI<tspan class="cls-2" x="37.4" y="0">T</tspan><tspan x="48.94" y="0">AR</tspan></text><text class="cls-3" transform="translate(47.38 70.69)">S<tspan class="cls-4" x="13.57" y="0">CHOO</tspan><tspan class="cls-5" x="75.68" y="0">L</tspan></text><text/></g></g></svg>